<svg xmlns="http://www.w3.org/2000/svg" width="1200" height="630" viewBox="0 0 1200 630">
  <rect width="1200" height="630" fill="#1d1d1d"/>
  <rect x="50" y="22" width="1100" height="586" rx="54" fill="#fff" stroke="#ff6908" stroke-width="12"/>
  <text x="545" y="126" text-anchor="middle" font-family="Apple SD Gothic Neo, Noto Sans KR, sans-serif" font-size="74" font-weight="800" fill="#f76408">수리킹</text>
  <path d="M668 123 L678 83 L704 109 L720 75 L736 109 L762 83 L772 123 Z" fill="#d7a71e" stroke="#a67b0c" stroke-width="2"/>
  <rect x="672" y="119" width="96" height="18" rx="6" fill="#c79915" stroke="#a67b0c" stroke-width="2"/>
  <circle cx="692" cy="115" r="7" fill="#d94a35"/>
  <circle cx="720" cy="115" r="7" fill="#0aa878"/>
  <circle cx="748" cy="115" r="7" fill="#7d4fd6"/>
  <text x="600" y="184" text-anchor="middle" font-family="Apple SD Gothic Neo, Noto Sans KR, sans-serif" font-size="32" font-weight="500" fill="#666">집수리 전문가 무료 매칭 플랫폼</text>
  <rect x="132" y="224" width="936" height="128" rx="26" fill="#fff5df"/>
  <text x="600" y="283" text-anchor="middle" font-family="Apple SD Gothic Neo, Noto Sans KR, sans-serif" font-size="50" font-weight="800" fill="#cc4f00">수수료 0원!</text>
  <text x="600" y="336" text-anchor="middle" font-family="Apple SD Gothic Neo, Noto Sans KR, sans-serif" font-size="41" font-weight="800" fill="#cc4f00">의뢰인과 작업자 직접 연결</text>
  <text x="600" y="422" text-anchor="middle" font-family="Apple SD Gothic Neo, Noto Sans KR, sans-serif" font-size="34" font-weight="500" fill="#111">도배 · 타일 · 전기 · 배관 · 보일러</text>
  <text x="600" y="466" text-anchor="middle" font-family="Apple SD Gothic Neo, Noto Sans KR, sans-serif" font-size="34" font-weight="500" fill="#111">누수 · 인테리어 · 전 분야</text>
  <rect x="132" y="486" width="936" height="74" rx="18" fill="none" stroke="#ff6908" stroke-width="5" stroke-dasharray="18 14"/>
  <circle cx="468" cy="523" r="24" fill="#e8fbff" stroke="#37aeca" stroke-width="3"/>
  <path d="M444 523 H492 M468 499 V547 M453 511 C463 516 473 516 483 511 M453 535 C463 530 473 530 483 535" fill="none" stroke="#37aeca" stroke-width="3" stroke-linecap="round"/>
  <text x="520" y="541" font-family="Apple SD Gothic Neo, Noto Sans KR, sans-serif" font-size="54" font-weight="800" fill="#f76408">suriking.kr</text>
  <text x="600" y="592" text-anchor="middle" font-family="Apple SD Gothic Neo, Noto Sans KR, sans-serif" font-size="23" font-weight="500" fill="#999">지금 등록하면 상담 노출 우선 적용</text>
</svg>
